<svg height="38px" width="38px" fill="#094067" xmlns="http://www.w3.org/2000/svg" xmlns:xlink="http://www.w3.org/1999/xlink" version="1.1" x="0px" y="0px" viewBox="0 0 100 100" enable-background="new 0 0 100 100" xml:space="preserve">
  <g><path d="M50,7c23.7,0,43,19.3,43,43S73.7,93,50,93S7,73.7,7,50S26.3,7,50,7 M50,5C25.1,5,5,25.1,5,50s20.1,45,45,45s45-20.1,45-45   S74.9,5,50,5L50,5z"/></g>
  <g><polygon points="43.6,34.7 24.6,72.6 62.3,72.6"/>
  <g><polygon points="63.2,72.6 75.4,72.6 61.3,44.1 55.2,56.4"/></g>
  <polygon points="62.6,37.5 60.7,36.8 60.3,38.7 58.9,37.2 57.7,38.7 57.1,36.9 55.4,37.7 55.6,35.7 53.7,35.7 54.8,34.1 53.1,33.2    54.8,32.2 53.6,30.7 55.5,30.5 55.2,28.6 57,29.3 57.4,27.5 58.8,28.9 60,27.4 60.6,29.3 62.4,28.5 62.1,30.4 64,30.4 62.9,32    64.6,32.9 63,33.9 64.1,35.5 62.2,35.6  "/></g>
</svg>
